<?xml version="1.0" standalone="no"?>
<!DOCTYPE svg PUBLIC "-//W3C//DTD SVG 20010904//EN"
 "http://www.w3.org/TR/2001/REC-SVG-20010904/DTD/svg10.dtd">
<svg version="1.0" xmlns="http://www.w3.org/2000/svg"
 width="512.000000pt" height="512.000000pt" viewBox="0 0 512.000000 512.000000"
 preserveAspectRatio="xMidYMid meet">
<metadata>
Created by potrace 1.14, written by Peter Selinger 2001-2017
</metadata>
<g transform="translate(0.000000,512.000000) scale(0.100000,-0.100000)"
fill="#000000" stroke="none">
<path d="M2335 5110 c-490 -50 -942 -227 -1335 -523 -131 -99 -378 -349 -478
-482 -323 -435 -497 -925 -518 -1460 -10 -249 15 -469 81 -731 45 -177 91
-298 185 -489 202 -411 499 -747 880 -997 867 -570 1953 -570 2820 0 164 107
280 204 425 353 133 137 197 216 299 369 87 129 216 385 271 534 43 116 97
323 119 456 95 570 -13 1179 -298 1678 -451 791 -1272 1281 -2176 1297 -107 2
-231 0 -275 -5z m1578 -1230 c17 -20 28 -48 32 -85 4 -31 5 -583 2 -1228 -6
-1298 -3 -1233 -72 -1347 -67 -110 -170 -188 -300 -225 -93 -27 -223 -17 -311
24 -169 79 -272 224 -290 411 -13 134 45 280 148 376 112 103 221 140 386 131
l102 -6 0 778 c0 428 -2 780 -5 783 -6 6 -233 -49 -920 -220 l-470 -117 -2
-980 c-3 -1094 -1 -1067 -71 -1184 -113 -192 -339 -290 -545 -236 -89 23 -153
60 -222 129 -106 106 -151 231 -143 392 8 154 79 273 220 364 88 57 163 74
308 68 l120 -5 0 840 0 840 35 32 c32 31 56 38 387 119 194 48 450 111 568
141 596 151 939 233 977 234 34 1 45 -4 66 -29z"/>
</g>
</svg>
